<svg xmlns="http://www.w3.org/2000/svg" width="26.84" height="24.329" viewBox="0 0 26.84 24.329">
  <path id="github-_142_" data-name="github-[#142]" d="M97.42,7399c7.412,0,13.42,5.584,13.42,12.473a12.592,12.592,0,0,1-9.17,11.833c-.68.123-.922-.267-.922-.6,0-.411.016-1.754.016-3.423a2.869,2.869,0,0,0-.911-2.309c2.989-.309,6.129-1.364,6.129-6.154a4.629,4.629,0,0,0-1.382-3.348,4.179,4.179,0,0,0-.132-3.3s-1.125-.335-3.687,1.278a13.656,13.656,0,0,0-6.721,0c-2.565-1.613-3.692-1.278-3.692-1.278a4.2,4.2,0,0,0-.13,3.3,4.646,4.646,0,0,0-1.382,3.348c0,4.778,3.134,5.849,6.114,6.164a2.587,2.587,0,0,0-.852,1.667,2.983,2.983,0,0,1-3.905-1.036,2.808,2.808,0,0,0-2.057-1.286s-1.308-.016-.091.758a3.384,3.384,0,0,1,1.49,1.825s.788,2.226,4.521,1.472c.007,1.042.019,2.025.019,2.322,0,.33-.247.715-.917.6A12.592,12.592,0,0,1,84,7411.472c0-6.889,6.01-12.473,13.42-12.473" transform="translate(-84 -7399)" fill="#f67280" fill-rule="evenodd"/>
</svg>
