<svg xmlns="http://www.w3.org/2000/svg" width="23.327" height="21.707" viewBox="0 0 23.327 21.707">
  <path id="Path_7" data-name="Path 7" d="M22.865,11.2c-3.168,0-3.565.013-4.809.066a9.119,9.119,0,0,0-2.831.5,5.771,5.771,0,0,0-2.066,1.252,5.306,5.306,0,0,0-1.346,1.922,7.449,7.449,0,0,0-.542,2.634c-.056,1.158-.07,1.528-.07,4.475s.014,3.316.07,4.474a7.5,7.5,0,0,0,.542,2.634,5.3,5.3,0,0,0,1.345,1.923,5.77,5.77,0,0,0,2.065,1.253,9.129,9.129,0,0,0,2.831.5c1.244.053,1.641.066,4.809.066s3.564-.013,4.808-.066a9.135,9.135,0,0,0,2.832-.5,5.765,5.765,0,0,0,2.065-1.253,5.307,5.307,0,0,0,1.346-1.922,7.558,7.558,0,0,0,.542-2.634c.056-1.158.07-1.527.07-4.474s-.015-3.318-.07-4.475a7.554,7.554,0,0,0-.542-2.634,5.3,5.3,0,0,0-1.346-1.923A5.76,5.76,0,0,0,30.5,11.77a9.148,9.148,0,0,0-2.833-.5c-1.244-.053-1.64-.066-4.809-.066Zm-.389,1.956h.389c3.114,0,3.483.01,4.713.062a6.881,6.881,0,0,1,2.166.374,3.644,3.644,0,0,1,1.34.812,3.356,3.356,0,0,1,.873,1.248,5.636,5.636,0,0,1,.4,2.015c.056,1.144.068,1.488.068,4.384s-.012,3.24-.068,4.384a5.642,5.642,0,0,1-.4,2.015,3.344,3.344,0,0,1-.873,1.247,3.643,3.643,0,0,1-1.34.812,6.854,6.854,0,0,1-2.166.374c-1.23.052-1.6.063-4.713.063s-3.484-.011-4.713-.063a6.893,6.893,0,0,1-2.166-.374,3.649,3.649,0,0,1-1.341-.812,3.351,3.351,0,0,1-.873-1.247,5.635,5.635,0,0,1-.4-2.015c-.056-1.144-.067-1.488-.067-4.386s.011-3.24.067-4.384a5.645,5.645,0,0,1,.4-2.015,3.349,3.349,0,0,1,.873-1.248,3.656,3.656,0,0,1,1.341-.812,6.866,6.866,0,0,1,2.166-.374c1.076-.045,1.493-.059,3.667-.061v0Zm5.215,3.1a1.353,1.353,0,0,1,1.4-1.3h0a1.306,1.306,0,1,1-1.4,1.3Zm-4.827.22a5.793,5.793,0,0,0-5.99,5.574,5.792,5.792,0,0,0,5.99,5.573,5.791,5.791,0,0,0,5.989-5.573A5.793,5.793,0,0,0,22.865,16.48Zm3.888,5.574a3.76,3.76,0,0,0-3.888-3.618,3.76,3.76,0,0,0-3.888,3.618,3.76,3.76,0,0,0,3.888,3.618A3.76,3.76,0,0,0,26.753,22.053Z" transform="translate(-11.2 -11.2)" fill="#f67280" fill-rule="evenodd"/>
</svg>
